<svg xmlns="http://www.w3.org/2000/svg" viewBox="0 0 1600 900" role="img" aria-labelledby="title desc">
  <title id="title">GRU4Rec 对 item-KNN 的关键提升 / ICLR 2016 Table 3</title>
  <desc id="desc">选择论文中 TOP1、1000 hidden units；指标均为越高越好。</desc>
  <rect width="1600" height="900" fill="#faf7f0"/>
  <g font-family="Inter, system-ui, -apple-system, BlinkMacSystemFont, 'Segoe UI', sans-serif">
    <text x="80" y="82" fill="#171612" font-size="42" font-weight="650" text-anchor="start">GRU4Rec 对 item-KNN 的关键提升 / ICLR 2016 Table 3</text>
  <text x="80" y="124" fill="#6f6a61" font-size="21" font-weight="400" text-anchor="start">选择论文中 TOP1、1000 hidden units；指标均为越高越好。</text>
    <text x="90" y="229" fill="#171612" font-size="21" font-weight="700" text-anchor="start">RSC15 Recall@20</text>
      <rect x="310" y="243" width="1120" height="28" rx="14" fill="#eee9df" stroke="none" stroke-width="2"/>
          <rect x="310" y="243" width="787.8888888888888" height="28" rx="14" fill="#c9c0b3" stroke="none" stroke-width="2"/>
          <text x="290" y="264" fill="#6f6a61" font-size="17" font-weight="600" text-anchor="end">Item-KNN</text>
          <text x="1111.8888888888887" y="264" fill="#171612" font-size="17" font-weight="700" text-anchor="start">0.5065</text>
<rect x="310" y="285" width="1120" height="28" rx="14" fill="#eee9df" stroke="none" stroke-width="2"/>
          <rect x="310" y="285" width="965.3777777777779" height="28" rx="14" fill="#8b5cf6" stroke="none" stroke-width="2"/>
          <text x="290" y="306" fill="#6f6a61" font-size="17" font-weight="600" text-anchor="end">GRU4Rec</text>
          <text x="1289.3777777777777" y="306" fill="#171612" font-size="17" font-weight="700" text-anchor="start">0.6206</text>
<text x="90" y="364" fill="#171612" font-size="21" font-weight="700" text-anchor="start">RSC15 MRR@20</text>
      <rect x="310" y="378" width="1120" height="28" rx="14" fill="#eee9df" stroke="none" stroke-width="2"/>
          <rect x="310" y="378" width="318.5777777777778" height="28" rx="14" fill="#c9c0b3" stroke="none" stroke-width="2"/>
          <text x="290" y="399" fill="#6f6a61" font-size="17" font-weight="600" text-anchor="end">Item-KNN</text>
          <text x="642.5777777777778" y="399" fill="#171612" font-size="17" font-weight="700" text-anchor="start">0.2048</text>
<rect x="310" y="420" width="1120" height="28" rx="14" fill="#eee9df" stroke="none" stroke-width="2"/>
          <rect x="310" y="420" width="418.91111111111115" height="28" rx="14" fill="#8b5cf6" stroke="none" stroke-width="2"/>
          <text x="290" y="441" fill="#6f6a61" font-size="17" font-weight="600" text-anchor="end">GRU4Rec</text>
          <text x="742.9111111111112" y="441" fill="#171612" font-size="17" font-weight="700" text-anchor="start">0.2693</text>
<text x="90" y="499" fill="#171612" font-size="21" font-weight="700" text-anchor="start">VIDEO Recall@20</text>
      <rect x="310" y="513" width="1120" height="28" rx="14" fill="#eee9df" stroke="none" stroke-width="2"/>
          <rect x="310" y="513" width="856.8000000000001" height="28" rx="14" fill="#c9c0b3" stroke="none" stroke-width="2"/>
          <text x="290" y="534" fill="#6f6a61" font-size="17" font-weight="600" text-anchor="end">Item-KNN</text>
          <text x="1180.8000000000002" y="534" fill="#171612" font-size="17" font-weight="700" text-anchor="start">0.5508</text>
<rect x="310" y="555" width="1120" height="28" rx="14" fill="#eee9df" stroke="none" stroke-width="2"/>
          <rect x="310" y="555" width="1030.4" height="28" rx="14" fill="#8b5cf6" stroke="none" stroke-width="2"/>
          <text x="290" y="576" fill="#6f6a61" font-size="17" font-weight="600" text-anchor="end">GRU4Rec</text>
          <text x="1354.4" y="576" fill="#171612" font-size="17" font-weight="700" text-anchor="start">0.6624</text>
<text x="90" y="634" fill="#171612" font-size="21" font-weight="700" text-anchor="start">VIDEO MRR@20</text>
      <rect x="310" y="648" width="1120" height="28" rx="14" fill="#eee9df" stroke="none" stroke-width="2"/>
          <rect x="310" y="648" width="525.9333333333334" height="28" rx="14" fill="#c9c0b3" stroke="none" stroke-width="2"/>
          <text x="290" y="669" fill="#6f6a61" font-size="17" font-weight="600" text-anchor="end">Item-KNN</text>
          <text x="849.9333333333334" y="669" fill="#171612" font-size="17" font-weight="700" text-anchor="start">0.3381</text>
<rect x="310" y="690" width="1120" height="28" rx="14" fill="#eee9df" stroke="none" stroke-width="2"/>
          <rect x="310" y="690" width="605.2666666666667" height="28" rx="14" fill="#8b5cf6" stroke="none" stroke-width="2"/>
          <text x="290" y="711" fill="#6f6a61" font-size="17" font-weight="600" text-anchor="end">GRU4Rec</text>
          <text x="929.2666666666667" y="711" fill="#171612" font-size="17" font-weight="700" text-anchor="start">0.3891</text>
    <text x="1510" y="842" fill="#6f6a61" font-size="16" font-weight="500" text-anchor="end">Source: original paper tables; values redrawn</text>
  </g>
</svg>
