<?xml version="1.0" encoding="UTF-8"?>
<!DOCTYPE svg PUBLIC "-//W3C//DTD SVG 1.1//EN" "http://www.w3.org/Graphics/SVG/1.1/DTD/svg11.dtd">
<!-- Creator: CorelDRAW -->
<svg xmlns="http://www.w3.org/2000/svg" xml:space="preserve" width="1.99999in" height="1.99999in" version="1.1" style="shape-rendering:geometricPrecision; text-rendering:geometricPrecision; image-rendering:optimizeQuality; fill-rule:evenodd; clip-rule:evenodd"
viewBox="0 0 2000 2000"
 xmlns:xlink="http://www.w3.org/1999/xlink">
 <defs>
  <style type="text/css">
   <![CDATA[
    .fil0 {fill:none}
    .fil1 {fill:#333333}
    .fil2 {fill:url(#id0)}
   ]]>
  </style>
  <linearGradient id="id0" gradientUnits="userSpaceOnUse" x1="1012.83" y1="452.031" x2="1012.83" y2="1005.03">
   <stop offset="0" style="stop-opacity:1; stop-color:#336699"/>
   <stop offset="1" style="stop-opacity:1; stop-color:#00CCFF"/>
  </linearGradient>
 </defs>
 <rect class="fil0" width="2000" height="2000"/>
 <g id="Layer_x0020_1">
  <metadata id="CorelCorpID_0Corel-Layer"/>
  <path class="fil1" d="M1183 1093c-17,0 -31,-14 -30,-31l8 -162c-64,-1 -125,-4 -194,-10 -34,-3 -47,-3 -73,15 -23,17 -52,39 -97,35 -25,-3 -53,-51 -64,-71 -9,-17 -12,-23 -38,-30 -40,-12 -202,-49 -237,-49l-39 49c-24,30 -108,115 -185,111 -20,-2 -34,-23 -25,-42 6,-14 13,-27 20,-40 25,-46 48,-90 28,-160 -2,-17 -57,-103 -79,-137 -26,-41 -43,-62 -23,-83 6,-5 14,-8 22,-8 102,3 206,63 271,156l11 22c83,-12 365,-58 451,-83 76,-22 85,-41 86,-43l56 -149c8,-22 37,-26 51,-9l128 153c171,3 542,43 616,141 9,12 9,42 0,54 -44,55 -166,103 -372,147 -72,21 -64,1 -77,25 -48,93 -117,139 -198,194 -5,4 -11,5 -17,5zm413 544c-80,0 -147,-120 -196,-120 -49,0 -120,120 -200,120 -81,0 -151,-120 -200,-120 -46,0 -116,120 -197,120 -81,0 -150,-120 -200,-120 -49,0 -116,120 -197,120 -80,0 -150,-120 -200,-120 -39,0 -39,-60 0,-60 81,0 151,120 200,120 49,0 117,-120 197,-120 81,0 151,120 200,120 49,0 119,-120 197,-120 81,0 150,120 200,120 49,0 119,-120 200,-120 80,0 148,120 196,120 50,0 120,-120 200,-120 40,0 40,60 0,60 -49,0 -119,120 -200,120zm0 -207c-80,0 -147,-120 -196,-120 -49,0 -120,120 -200,120 -81,0 -151,-120 -200,-120 -46,0 -116,120 -197,120 -81,0 -150,-120 -200,-120 -49,0 -116,120 -197,120 -80,0 -150,-120 -200,-120 -39,0 -39,-60 0,-60 81,0 151,120 200,120 49,0 117,-120 197,-120 81,0 151,120 200,120 49,0 119,-120 197,-120 81,0 150,120 200,120 49,0 119,-120 200,-120 80,0 148,120 196,120 50,0 120,-120 200,-120 40,0 40,60 0,60 -49,0 -119,120 -200,120zm0 -207c-80,0 -147,-120 -196,-120 -49,0 -120,120 -200,120 -81,0 -151,-120 -200,-120 -46,0 -116,120 -197,120 -81,0 -150,-120 -200,-120 -49,0 -116,120 -197,120 -80,0 -150,-120 -200,-120 -39,0 -39,-60 0,-60 81,0 151,120 200,120 49,0 117,-120 197,-120 81,0 151,120 200,120 49,0 119,-120 197,-120 81,0 150,120 200,120 49,0 119,-120 200,-120 80,0 148,120 196,120 50,0 120,-120 200,-120 40,0 40,60 0,60 -49,0 -119,120 -200,120zm-120 -496c-4,0 -9,-1 -14,-4 -48,-26 -81,-72 -92,-128 -22,-2 -43,-4 -63,-5 9,33 31,63 61,81 35,21 2,72 -30,51 -50,-30 -84,-80 -93,-135 -22,-1 -40,3 -52,-11l-103 -124 -39 102c-28,72 -207,99 -331,122l-277 44c-28,0 -38,-38 -46,-51 -40,-57 -99,-100 -161,-119 40,62 72,115 79,142 23,77 4,132 -19,177 45,-28 76,-64 103,-100 39,-52 59,-45 183,-18 56,12 113,25 130,31 69,20 64,53 91,86l9 13c39,-4 62,-53 126,-53l34 2c79,7 147,10 221,10 17,0 31,15 30,32l-7 133c154,-108 107,-169 191,-185 15,-2 22,2 48,-8 2,-1 3,-1 5,-2 218,-46 299,-89 329,-115 -57,-44 -216,-76 -355,-93 10,30 29,54 57,68 27,14 17,57 -15,57zm120 -14c-12,0 -67,-27 -45,-60 19,-28 47,-5 62,5 25,17 13,55 -17,55zm-1126 76c0,0 0,0 0,0zm230 -160c-2,4 -4,9 -4,14 0,-5 2,-9 4,-14zm12 -12c-4,2 -8,5 -10,9 2,-4 6,-7 10,-9z"/>
  <path class="fil2" d="M1193 840c17,0 31,15 30,32l-7 133c154,-108 107,-169 191,-185 15,-2 22,2 48,-8 2,-1 3,-1 5,-2 218,-46 299,-89 329,-115 -57,-44 -216,-76 -355,-93 10,30 29,54 57,68 27,14 17,57 -15,57 -4,0 -9,-1 -14,-4 -48,-26 -81,-72 -92,-128 -22,-2 -43,-4 -63,-5 9,33 31,63 61,81 35,21 2,72 -30,51 -50,-30 -84,-80 -93,-135 -22,-1 -40,3 -52,-11l-103 -124 -39 102c-28,72 -207,99 -331,122l-277 44c-28,0 -38,-38 -46,-51 -40,-57 -99,-100 -161,-119 40,62 72,115 79,142 23,77 4,132 -19,177 45,-28 76,-64 103,-100 39,-52 59,-45 183,-18 56,12 113,25 130,31 69,20 64,53 91,86l9 13c39,-4 62,-53 126,-53l34 2c79,7 147,10 221,10zm403 -127c-12,0 -67,-27 -45,-60 19,-28 47,-5 62,5 25,17 13,55 -17,55z"/>
 </g>
</svg>
